# xmcd
#
# Track frame offsets:
#	150
#	8577
#	24670
#	31780
#	52020
#	61177
#	71625
#	87375
#	98995
#	110025
#	126997
#	136757
#	146705
#	160000
#
# Disc length: 2296 seconds
#
# Revision: 0
# Processed by: cddbd v1.4PL0 Copyright (c) Steve Scherf et al.
# Submitted via: EasyCDDAExtractor 5.0.2.1
#
DISCID=bd08f60e
DTITLE=Lost Luggage - Storage
DYEAR=1995
DGENRE=Blues-Rock
TTITLE0=Bad Boy
TTITLE1=Respect
TTITLE2=Come On
TTITLE3=Add It Up
TTITLE4=Watch Dog
TTITLE5=It's All Over Now
TTITLE6=Down Home Boy
TTITLE7=Memphis Train
TTITLE8=It Should Have Been Me
TTITLE9=Somerhings's Gotta Hold On Me
TTITLE10=Work Song
TTITLE11=Blister In The Sun
TTITLE12=I Can't Be Satisfied
TTITLE13=Leaving Here
EXTD=
EXTT0=
EXTT1=
EXTT2=
EXTT3=
EXTT4=
EXTT5=
EXTT6=
EXTT7=
EXTT8=
EXTT9=
EXTT10=
EXTT11=
EXTT12=
EXTT13=
PLAYORDER=
